HIERARCHY
ROOT Hips
{
	OFFSET 51.743301 -9.516694 85.688797
	CHANNELS 6 Xposition Yposition Zposition Xrotation Yrotation Zrotation
	JOINT spine
	{
		OFFSET 0.000000 -0.367607 6.392601
		CHANNELS 3 Xrotation Yrotation Zrotation
		JOINT spine1
		{
			OFFSET 0.000000 -0.000001 9.176109
			CHANNELS 3 Xrotation Yrotation Zrotation
			JOINT spine2
			{
				OFFSET 0.000000 -0.000002 8.792381
				CHANNELS 3 Xrotation Yrotation Zrotation
				JOINT Neck
				{
					OFFSET 0.000000 -1.076243 22.573708
					CHANNELS 3 Xrotation Yrotation Zrotation
					JOINT Head
					{
						OFFSET 0.000000 -0.000001 6.820114
						CHANNELS 3 Xrotation Yrotation Zrotation
						End Site
						{
							OFFSET 0.000000 5.444268 16.508499
						}
					}
				}
				JOINT RightShoulder
				{
					OFFSET -3.702209 0.515507 9.495087
					CHANNELS 3 Xrotation Yrotation Zrotation
					JOINT RightArm
					{
						OFFSET 0.000000 -0.000003 12.453697
						CHANNELS 3 Xrotation Yrotation Zrotation
						JOINT RightArmRoll
						{
							OFFSET 0.000000 -0.000001 6.286865
							CHANNELS 3 Xrotation Yrotation Zrotation
							JOINT RightForeArm
							{
								OFFSET 0.000000 -0.000003 18.311401
								CHANNELS 3 Xrotation Yrotation Zrotation
								JOINT RightForeArmRoll
								{
									OFFSET 0.000000 -0.000001 7.054825
									CHANNELS 3 Xrotation Yrotation Zrotation
									JOINT RightHand
									{
										OFFSET 0.000000 -0.000002 14.157501
										CHANNELS 3 Xrotation Yrotation Zrotation
										End Site
										{
											OFFSET 0.000000 0.000000 0.100006
										}
									}
								}
							}
						}
					}
				}
				JOINT LeftShoulder
				{
					OFFSET 3.702209 0.515507 9.495087
					CHANNELS 3 Xrotation Yrotation Zrotation
					JOINT LeftArm
					{
						OFFSET 0.000000 -0.000003 12.453697
						CHANNELS 3 Xrotation Yrotation Zrotation
						JOINT LeftArmRoll
						{
							OFFSET 0.000000 -0.000001 6.286865
							CHANNELS 3 Xrotation Yrotation Zrotation
							JOINT LeftForeArm
							{
								OFFSET 0.000000 -0.000003 18.311401
								CHANNELS 3 Xrotation Yrotation Zrotation
								JOINT LeftForeArmRoll
								{
									OFFSET 0.000000 -0.000001 7.054825
									CHANNELS 3 Xrotation Yrotation Zrotation
									JOINT LeftHand
									{
										OFFSET 0.000000 -0.000002 14.157501
										CHANNELS 3 Xrotation Yrotation Zrotation
										End Site
										{
											OFFSET 0.000000 0.000000 0.100006
										}
									}
								}
							}
						}
					}
				}
			}
		}
	}
	JOINT RightUpLeg
	{
		OFFSET -5.666161 0.871611 -1.039032
		CHANNELS 3 Xrotation Yrotation Zrotation
		JOINT RightUpLegRoll
		{
			OFFSET 0.000000 -0.000003 16.600502
			CHANNELS 3 Xrotation Yrotation Zrotation
			JOINT RightLeg
			{
				OFFSET 0.000000 0.000003 -20.557198
				CHANNELS 3 Xrotation Yrotation Zrotation
				JOINT RightLegRoll
				{
					OFFSET 0.000000 -0.000003 20.624397
					CHANNELS 3 Xrotation Yrotation Zrotation
					JOINT RightFoot
					{
						OFFSET 0.000000 -0.000003 17.166405
						CHANNELS 3 Xrotation Yrotation Zrotation
						JOINT RightToeBase
						{
							OFFSET 0.000000 -0.000003 14.350204
							CHANNELS 3 Xrotation Yrotation Zrotation
							End Site
							{
								OFFSET 0.006081 0.801059 6.949707
							}
						}
					}
				}
			}
		}
	}
	JOINT LeftUpLeg
	{
		OFFSET 5.666161 0.871611 -1.039032
		CHANNELS 3 Xrotation Yrotation Zrotation
		JOINT LeftUpLegRoll
		{
			OFFSET 0.000000 -0.000003 16.600601
			CHANNELS 3 Xrotation Yrotation Zrotation
			JOINT LeftLeg
			{
				OFFSET 0.000000 -0.000004 20.557098
				CHANNELS 3 Xrotation Yrotation Zrotation
				JOINT LeftLegRoll
				{
					OFFSET 0.000000 -0.000003 20.815094
					CHANNELS 3 Xrotation Yrotation Zrotation
					JOINT LeftFoot
					{
						OFFSET 0.000000 -0.000003 16.975708
						CHANNELS 3 Xrotation Yrotation Zrotation
						JOINT LeftToeBase
						{
							OFFSET 0.000000 -0.000003 14.350204
							CHANNELS 3 Xrotation Yrotation Zrotation
							End Site
							{
								OFFSET -0.027260 0.801059 6.949707
							}
						}
					}
				}
			}
		}
	}
}
MOTION
Frames: 4
Frame Time: 0.041667
51.366295 -10.350717 85.593689 -4.829347 2.336973 -1.379289 -1.162943 0.071070 -0.099849 1.677045 0.144126 -0.202968 3.322120 0.141736 -0.204804 14.958261 -0.338048 -7.731273 1.350513 -0.156794 -7.748082 4.374361 -56.739000 5.483652 -43.181562 -127.502078 -89.939658 0.000003 0.000005 -0.000006 113.021722 9.188500 -22.745087 0.000002 -0.000006 -3.001658 -5.000209 -7.998782 0.000184 5.335240 49.958336 -7.754601 -47.141071 127.143083 65.198261 -0.000005 -0.000003 0.000007 110.487087 -3.201505 11.311702 0.000001 0.000002 3.000002 -5.000218 7.998755 -0.000142 3.754054 -177.567215 0.153978 -179.999991 0.000005 -1.123998 175.053760 -2.913129 -0.485002 0.000001 -0.000002 0.047021 68.979501 6.883279 2.152902 25.456962 -7.355613 -0.000000 3.074734 172.869178 -1.531024 -0.000005 -0.000004 -1.044130 -9.724647 1.237121 0.736530 -0.000001 0.000001 -0.120868 72.012146 -6.235997 -3.747759 25.457870 7.355613 -0.001381 
51.356594 -10.351614 85.617393 -4.833853 2.344601 -1.375739 -1.162061 0.070315 -0.100057 1.678815 0.142559 -0.203036 3.323880 0.140166 -0.204845 14.949348 -0.328473 -7.743415 1.349388 -0.180944 -7.758595 4.538504 -56.672453 5.688397 -43.252753 -127.622768 -90.598826 0.000003 0.000007 -0.000007 112.657086 9.247095 -22.648409 0.000002 -0.000006 -3.001661 -5.000212 -7.998781 0.000178 5.450872 49.892807 -7.907685 -47.240921 127.368698 65.290051 -0.000004 -0.000003 0.000004 110.478071 -3.181202 11.268775 -0.000001 0.000000 3.000002 -5.000221 7.998753 -0.000141 3.757245 -177.579208 0.146694 -179.999991 0.000005 -1.123998 175.053145 -2.910133 -0.484774 0.000001 -0.000002 0.047021 68.978880 6.883279 2.152438 25.456960 -7.355615 -0.000001 3.073758 172.857171 -1.539251 -0.000005 -0.000004 -1.043510 -9.726642 1.238315 0.737682 -0.000001 0.000001 -0.120513 72.007262 -6.234392 -3.752179 25.457872 7.355613 -0.001381 
51.347092 -10.342513 85.614899 -4.837836 2.352708 -1.372329 -1.161379 0.069443 -0.100252 1.680176 0.140748 -0.203024 3.325239 0.138353 -0.204803 14.942328 -0.317355 -7.755484 1.346380 -0.207379 -7.768956 4.695813 -56.603236 5.885573 -43.336656 -127.753894 -91.253042 0.000006 0.000005 -0.000006 112.283802 9.297695 -22.533067 -0.000001 -0.000005 -3.001659 -5.000210 -7.998781 0.000180 5.568013 49.826490 -8.062831 -47.342944 127.598985 65.355833 -0.000007 -0.000002 0.000001 110.466425 -3.157316 11.213128 0.000000 -0.000000 3.000001 -5.000218 7.998752 -0.000143 3.759946 -177.591189 0.138846 -179.999991 0.000006 -1.123998 175.052585 -2.907149 -0.485542 0.000002 -0.000002 0.047021 68.978244 6.883278 2.151780 25.456957 -7.355615 -0.000000 3.072385 172.844193 -1.547821 -0.000005 -0.000005 -1.042850 -9.728238 1.239561 0.738965 -0.000001 0.000001 -0.120173 72.002085 -6.232854 -3.756422 25.457867 7.355614 -0.001382 
51.355091 -10.336617 85.591301 -4.841361 2.361145 -1.369100 -1.160872 0.068498 -0.100441 1.681195 0.138780 -0.202949 3.326258 0.136381 -0.204693 14.936512 -0.305113 -7.767575 1.342020 -0.235516 -7.779246 4.847703 -56.532318 6.076710 -43.429242 -127.892465 -91.899184 0.000004 0.000005 -0.000007 111.906379 9.340964 -22.404639 -0.000001 -0.000008 -3.001662 -5.000212 -7.998786 0.000180 5.686652 49.759475 -8.219992 -47.445151 127.831785 65.398153 -0.000003 -0.000005 0.000003 110.453380 -3.130403 11.148884 -0.000002 -0.000000 3.000000 -5.000220 7.998754 -0.000144 3.762229 -177.604166 0.130534 -179.999991 0.000006 -1.123998 175.052079 -2.903159 -0.485223 0.000002 -0.000002 0.047021 68.977514 6.883307 2.151130 25.456960 -7.355616 0.000001 3.070744 172.830205 -1.556611 -0.000005 -0.000004 -1.042160 -9.729452 1.240828 0.740346 -0.000000 0.000001 -0.119847 71.996703 -6.231376 -3.760388 25.457869 7.355613 -0.001382 
